# xmcd
#
# Track frame offsets:
#	150
#	18460
#	32356
#	48946
#	62740
#	81001
#	98073
#	115639
#	129045
#	145112
#	161896
#	178738
#	193788
#	211248
#	228440
#	241966
#	258186
#	275875
#
# Disc length: 3957 seconds
#
# Revision: 0
# Processed by: cddbd v1.5.2PL0 Copyright (c) Steve Scherf et al.
# Submitted via: EasyCDDAExtractor 11.5.0.1
#
DISCID=ef0f7312
DTITLE=Various Artist - NCT 119
DYEAR=2009
DGENRE=Country
TTITLE0=John Rich - Shuttin' Detroit Down
TTITLE1=Dierks Bentley - Sideways
TTITLE2=Toby Keith - Lost You Anyway
TTITLE3=Sugarland - It Happens
TTITLE4=Blake Shelton - I'll Just Hold On
TTITLE5=Pat Green - Country Star
TTITLE6=Billy Currington - People Are Crazy
TTITLE7=Tracy Lawrence - Up To Him
TTITLE8=Chris Young - Getting You Home (The Black Dress Song)
TTITLE9=Randy Rogers Band - Buy Myself A Chance
TTITLE10=Jonathan Singleton and The Grove - Livin' In Paradise
TTITLE11=Randy Owens with Megan Mullins - Holding Everything
TTITLE12=Love And Theft - Runaway
TTITLE13=Jessica Harp - Boy Like Me
TTITLE14=Joey and Rory - Play The Song
TTITLE15=Bomshel - Fight Like A Girl
TTITLE16=Darren Kozelsky - Good Day To Get Gone
TTITLE17=Jamey Johnson - High Cost Of Living
EXTD=
EXTT0=
EXTT1=
EXTT2=
EXTT3=
EXTT4=
EXTT5=
EXTT6=
EXTT7=
EXTT8=
EXTT9=
EXTT10=
EXTT11=
EXTT12=
EXTT13=
EXTT14=
EXTT15=
EXTT16=
EXTT17=
PLAYORDER=
